# xmcd
#
# Track frame offsets:
#	150
#	17375
#	33833
#	49090
#	62660
#	75525
#	94482
#	112502
#	125414
#	142491
#	160131
#	176198
#	190745
#	209137
#	224959
#	246494
#	260369
#	277366
#	290436
#	305838
#
# Disc length: 4279
#
# Revision: 1
# Processed by: cddbd v1.5.1PL0 Copyright (c) Steve Scherf et al.
# Submitted via: VisiTrax 2.9.2.167 - For more info visit www.synapsa.com
# Normalized: r0:DSETVAR1
#
DISCID=3f10b514
DTITLE=Various Artist - Music of the Century - Best of Country, vol.3
DYEAR=1900
DGENRE=
TTITLE0=Kenny Rogers - I Swear
TTITLE1=Tanya Tucker/Paul Davis/Paul Overstreet - I Won't Take Less Than Your Love
TTITLE2=John Berry - A Mind Of Her Own
TTITLE3=T.Graham Brown - I Tell It Like It Use To Be
TTITLE4=Tanya Tucker - San Antonio Stroll
TTITLE5=Dan Seal - Addicted
TTITLE6=Smokie and Maggie Reilly - The Wrong Reasons
TTITLE7=Barbara Mandrell - I Wish I Could Fall In Love Today
TTITLE8=Don Williams - Old Coyote Town
TTITLE9=Suzy Bogguss - Someday Soon
TTITLE10=Lacy J. Dalton - Black Coffee
TTITLE11=Deana Carter - Turn Those Wheels Around
TTITLE12=Shenandoah with Alison Krauss - Somewhere In The Vicinity Of The Heat
TTITLE13=Charlie Daniels - All Night Long
TTITLE14=Steve Wariner - Holes In The Floor Of Heaven
TTITLE15=Larry Gatlin - Boogie and Beethoven
TTITLE16=Billy Dean - That Girl's Been Spying On Me
TTITLE17=The Ranch - Walkin' The Countr'y
TTITLE18=Eddie Rabbit - Someone Could Loos A Heart Tonight
TTITLE19=Tamra Rosanes with Dennis Locorrieré - Let It Be Me
EXTD=
EXTT0=
EXTT1=
EXTT2=
EXTT3=
EXTT4=
EXTT5=
EXTT6=
EXTT7=
EXTT8=
EXTT9=
EXTT10=
EXTT11=
EXTT12=
EXTT13=
EXTT14=
EXTT15=
EXTT16=
EXTT17=
EXTT18=
EXTT19=
PLAYORDER=
